{"asset":{"version":"2.0","generator":"Blockbench 4.11.1 glTF exporter"},"scenes":[{"nodes":[1],"name":"blockbench_export"}],"scene":0,"nodes":[{"translation":[0,0.1875,0],"name":"sphere","mesh":0},{"children":[0]}],"bufferViews":[{"buffer":0,"byteOffset":0,"byteLength":2400,"target":34962,"byteStride":12},{"buffer":0,"byteOffset":2400,"byteLength":2400,"target":34962,"byteStride":12},{"buffer":0,"byteOffset":4800,"byteLength":1600,"target":34962,"byteStride":8},{"buffer":0,"byteOffset":6400,"byteLength":564,"target":34963}],"buffers":[{"byteLength":6964,"uri":"data:application/octet-stream;base64,"}],"accessors":[{"bufferView":0,"componentType":5126,"count":200,"max":[0.6506409049034119,0.6350159049034119,0.625],"min":[-0.625,-0.1875,-0.625],"type":"VEC3"},{"bufferView":1,"componentType":5126,"count":200,"max":[0.9659258127212524,0.996650755405426,0.9659258127212524],"min":[-0.9998669028282166,-1,-0.9130857586860657],"type":"VEC3"},{"bufferView":2,"componentType":5126,"count":200,"max":[0.8423757553100586,0.739382266998291],"min":[0.00042551904334686697,0.0028031468391418457],"type":"VEC2"},{"bufferView":3,"componentType":5123,"count":282,"max":[199],"min":[0],"type":"SCALAR"}],"materials":[{"pbrMetallicRoughness":{"metallicFactor":0,"roughnessFactor":1,"baseColorTexture":{"index":0}},"alphaMode":"MASK","alphaCutoff":0.05,"doubleSided":true}],"textures":[{"sampler":0,"source":0,"name":"texture"}],"samplers":[{"magFilter":9728,"minFilter":9728,"wrapS":33071,"wrapT":33071}],"images":[{"mimeType":"image/png","uri":"data:image/png;base64,"}],"meshes":[{"primitives":[{"mode":4,"attributes":{"POSITION":0,"NORMAL":1,"TEXCOORD_0":2},"indices":3,"material":0}]}]}