{"asset":{"version":"2.0","generator":"Blockbench 4.11.1 glTF exporter"},"scenes":[{"nodes":[1],"name":"blockbench_export"}],"scene":0,"nodes":[{"translation":[0,-0.125,0],"name":"cylinder","mesh":0},{"children":[0]}],"bufferViews":[{"buffer":0,"byteOffset":0,"byteLength":600,"target":34962,"byteStride":12},{"buffer":0,"byteOffset":600,"byteLength":600,"target":34962,"byteStride":12},{"buffer":0,"byteOffset":1200,"byteLength":400,"target":34962,"byteStride":8},{"buffer":0,"byteOffset":1600,"byteLength":120,"target":34963}],"buffers":[{"byteLength":1720,"uri":"data:application/octet-stream;base64,"}],"accessors":[{"bufferView":0,"componentType":5126,"count":50,"max":[0.07347315549850464,0.75,0.0625],"min":[-0.07347315549850464,0.125,-0.07725425064563751],"type":"VEC3"},{"bufferView":1,"componentType":5126,"count":50,"max":[0.9510565400123596,0.5734623670578003,1],"min":[-0.9510565400123596,-1,-0.80901700258255],"type":"VEC3"},{"bufferView":2,"componentType":5126,"count":50,"max":[0.45861250162124634,0.697350025177002],"min":[0.008546874858438969,0],"type":"VEC2"},{"bufferView":3,"componentType":5123,"count":60,"max":[49],"min":[0],"type":"SCALAR"}],"materials":[{"pbrMetallicRoughness":{"metallicFactor":0,"roughnessFactor":1,"baseColorTexture":{"index":0}},"alphaMode":"MASK","alphaCutoff":0.05,"doubleSided":true}],"textures":[{"sampler":0,"source":0,"name":"texture"}],"samplers":[{"magFilter":9728,"minFilter":9728,"wrapS":33071,"wrapT":33071}],"images":[{"mimeType":"image/png","uri":"data:image/png;base64,"}],"meshes":[{"primitives":[{"mode":4,"attributes":{"POSITION":0,"NORMAL":1,"TEXCOORD_0":2},"indices":3,"material":0}]}]}