{"asset":{"version":"2.0","generator":"Blockbench 4.11.1 glTF exporter"},"scenes":[{"nodes":[2],"name":"blockbench_export"}],"scene":0,"nodes":[{"translation":[0,0.6875,0],"name":"sphere","mesh":0},{"name":"cuboid","mesh":1},{"children":[0,1]}],"bufferViews":[{"buffer":0,"byteOffset":0,"byteLength":1776,"target":34962,"byteStride":12},{"buffer":0,"byteOffset":1776,"byteLength":1776,"target":34962,"byteStride":12},{"buffer":0,"byteOffset":3552,"byteLength":1184,"target":34962,"byteStride":8},{"buffer":0,"byteOffset":4736,"byteLength":396,"target":34963},{"buffer":0,"byteOffset":5132,"byteLength":288,"target":34962,"byteStride":12},{"buffer":0,"byteOffset":5420,"byteLength":288,"target":34962,"byteStride":12},{"buffer":0,"byteOffset":5708,"byteLength":192,"target":34962,"byteStride":8},{"buffer":0,"byteOffset":5900,"byteLength":72,"target":34963}],"buffers":[{"byteLength":5972,"uri":"data:application/octet-stream;base64,"}],"accessors":[{"bufferView":0,"componentType":5126,"count":148,"max":[0.3863737881183624,0.15199878811836243,0.3863737881183624],"min":[-0.3863737881183624,-0.28125,-0.3863737881183624],"type":"VEC3"},{"bufferView":1,"componentType":5126,"count":148,"max":[0.9238795042037964,1,0.9238795042037964],"min":[-0.9238795042037964,-0.9238795638084412,-0.9238795042037964],"type":"VEC3"},{"bufferView":2,"componentType":5126,"count":148,"max":[0.7727500200271606,0.8135040998458862],"min":[0.0042500002309679985,0],"type":"VEC2"},{"bufferView":3,"componentType":5123,"count":198,"max":[147],"min":[0],"type":"SCALAR"},{"bufferView":4,"componentType":5126,"count":24,"max":[0.03125,0.5,0.03125],"min":[-0.03125,0,-0.03125],"type":"VEC3"},{"bufferView":5,"componentType":5126,"count":24,"max":[1,1,1],"min":[-1,-1,-1],"type":"VEC3"},{"bufferView":6,"componentType":5126,"count":24,"max":[0.375,1],"min":[0,0],"type":"VEC2"},{"bufferView":7,"componentType":5123,"count":36,"max":[23],"min":[0],"type":"SCALAR"}],"materials":[{"pbrMetallicRoughness":{"metallicFactor":0,"roughnessFactor":1,"baseColorTexture":{"index":0}},"alphaMode":"MASK","alphaCutoff":0.05,"doubleSided":true}],"textures":[{"sampler":0,"source":0,"name":"texture"}],"samplers":[{"magFilter":9728,"minFilter":9728,"wrapS":33071,"wrapT":33071}],"images":[{"mimeType":"image/png","uri":"data:image/png;base64,"}],"meshes":[{"primitives":[{"mode":4,"attributes":{"POSITION":0,"NORMAL":1,"TEXCOORD_0":2},"indices":3,"material":0}]},{"primitives":[{"mode":4,"attributes":{"POSITION":4,"NORMAL":5,"TEXCOORD_0":6},"indices":7,"material":0}]}]}