{"asset":{"version":"2.0","generator":"Blockbench 4.11.1 glTF exporter"},"scenes":[{"nodes":[6],"name":"blockbench_export"}],"scene":0,"nodes":[{"translation":[-0.3125,1.5625,0],"name":"sphere","mesh":0},{"translation":[0,0.4375,0],"name":"cylinder","mesh":1},{"rotation":[0,0,-0.2798290140309921,0.9600498543859287],"translation":[0,0.875,0],"name":"cylinder","mesh":2},{"translation":[0.25,1.4375,0],"name":"sphere","mesh":3},{"translation":[0,1.8125,-0.125],"name":"sphere","mesh":4},{"translation":[0,1.6875,0.25],"name":"sphere","mesh":5},{"children":[0,1,2,3,4,5]}],"bufferViews":[{"buffer":0,"byteOffset":0,"byteLength":3168,"target":34962,"byteStride":12},{"buffer":0,"byteOffset":3168,"byteLength":3168,"target":34962,"byteStride":12},{"buffer":0,"byteOffset":6336,"byteLength":2112,"target":34962,"byteStride":8},{"buffer":0,"byteOffset":8448,"byteLength":720,"target":34963},{"buffer":0,"byteOffset":9168,"byteLength":2856,"target":34962,"byteStride":12},{"buffer":0,"byteOffset":12024,"byteLength":2856,"target":34962,"byteStride":12},{"buffer":0,"byteOffset":14880,"byteLength":1904,"target":34962,"byteStride":8},{"buffer":0,"byteOffset":16784,"byteLength":672,"target":34963},{"buffer":0,"byteOffset":17456,"byteLength":840,"target":34962,"byteStride":12},{"buffer":0,"byteOffset":18296,"byteLength":840,"target":34962,"byteStride":12},{"buffer":0,"byteOffset":19136,"byteLength":560,"target":34962,"byteStride":8},{"buffer":0,"byteOffset":19696,"byteLength":180,"target":34963},{"buffer":0,"byteOffset":19876,"byteLength":3168,"target":34962,"byteStride":12},{"buffer":0,"byteOffset":23044,"byteLength":3168,"target":34962,"byteStride":12},{"buffer":0,"byteOffset":26212,"byteLength":2112,"target":34962,"byteStride":8},{"buffer":0,"byteOffset":28324,"byteLength":720,"target":34963},{"buffer":0,"byteOffset":29044,"byteLength":3168,"target":34962,"byteStride":12},{"buffer":0,"byteOffset":32212,"byteLength":3168,"target":34962,"byteStride":12},{"buffer":0,"byteOffset":35380,"byteLength":2112,"target":34962,"byteStride":8},{"buffer":0,"byteOffset":37492,"byteLength":720,"target":34963},{"buffer":0,"byteOffset":38212,"byteLength":3168,"target":34962,"byteStride":12},{"buffer":0,"byteOffset":41380,"byteLength":3168,"target":34962,"byteStride":12},{"buffer":0,"byteOffset":44548,"byteLength":2112,"target":34962,"byteStride":8},{"buffer":0,"byteOffset":46660,"byteLength":720,"target":34963}],"buffers":[{"byteLength":47380,"uri":"data:application/octet-stream;base64,"}],"accessors":[{"bufferView":0,"componentType":5126,"count":264,"max":[0.3125,0.3125,0.375],"min":[-0.375,-0.3125,-0.3125],"type":"VEC3"},{"bufferView":1,"componentType":5126,"count":264,"max":[0.9659258127212524,0.9659258127212524,0.8365163207054138],"min":[-0.9323585629463196,-0.9659258127212524,-0.9659258127212524],"type":"VEC3"},{"bufferView":2,"componentType":5126,"count":264,"max":[0.44731321930885315,0.48498690128326416],"min":[0.0018529456574469805,0],"type":"VEC2"},{"bufferView":3,"componentType":5123,"count":360,"max":[263],"min":[0],"type":"SCALAR"},{"bufferView":4,"componentType":5126,"count":238,"max":[0.1639457792043686,0.9375,0.15625],"min":[-0.4139457941055298,-0.4375,-0.16655464470386505],"type":"VEC3"},{"bufferView":5,"componentType":5126,"count":238,"max":[0.9753946661949158,1,1],"min":[-0.9753946661949158,-1,-0.9444673657417297],"type":"VEC3"},{"bufferView":6,"componentType":5126,"count":238,"max":[0.4798945188522339,0.5336365699768066],"min":[0,0],"type":"VEC2"},{"bufferView":7,"componentType":5123,"count":336,"max":[237],"min":[0],"type":"SCALAR"},{"bufferView":8,"componentType":5126,"count":70,"max":[0.17090333998203278,0.535929799079895,0.09375],"min":[-0.1479087471961975,-0.022743361070752144,-0.11588137596845627],"type":"VEC3"},{"bufferView":9,"componentType":5126,"count":70,"max":[0.9868112802505493,0.9063077569007874,1],"min":[-0.9362403154373169,-1,-0.8431891798973083],"type":"VEC3"},{"bufferView":10,"componentType":5126,"count":70,"max":[0.4877113401889801,0.5081876516342163],"min":[0,0.00270235538482666],"type":"VEC2"},{"bufferView":11,"componentType":5123,"count":90,"max":[69],"min":[0],"type":"SCALAR"},{"bufferView":12,"componentType":5126,"count":264,"max":[0.44975951313972473,0.375,0.38725951313972473],"min":[-0.375,-0.375,-0.4375],"type":"VEC3"},{"bufferView":13,"componentType":5126,"count":264,"max":[0.9348976612091064,0.9659258127212524,0.972402811050415],"min":[-0.9659258127212524,-0.9659258127212524,-0.8828693628311157],"type":"VEC3"},{"bufferView":14,"componentType":5126,"count":264,"max":[0.4630712866783142,0.3359375],"min":[0.0018928439822047949,0],"type":"VEC2"},{"bufferView":15,"componentType":5123,"count":360,"max":[263],"min":[0],"type":"SCALAR"},{"bufferView":16,"componentType":5126,"count":264,"max":[0.3125,0.33313295245170593,0.3125],"min":[-0.33313295245170593,-0.3125,-0.375],"type":"VEC3"},{"bufferView":17,"componentType":5126,"count":264,"max":[0.9659258127212524,0.9659258127212524,0.9659258127212524],"min":[-0.9913936853408813,-0.9659258127212524,-0.8633719682693481],"type":"VEC3"},{"bufferView":18,"componentType":5126,"count":264,"max":[0.48758047819137573,0.46875],"min":[0.0006025258335284889,0.1640625],"type":"VEC2"},{"bufferView":19,"componentType":5123,"count":360,"max":[263],"min":[0],"type":"SCALAR"},{"bufferView":20,"componentType":5126,"count":264,"max":[0.33313295245170593,0.33313295245170593,0.33313295245170593],"min":[-0.3125,-0.3125,-0.3125],"type":"VEC3"},{"bufferView":21,"componentType":5126,"count":264,"max":[0.9913936853408813,0.9671164751052856,0.9659258127212524],"min":[-0.9659258127212524,-0.9659258127212524,-0.9659258127212524],"type":"VEC3"},{"bufferView":22,"componentType":5126,"count":264,"max":[0.48758047819137573,0.45703125],"min":[0.09560294449329376,0.07037222385406494],"type":"VEC2"},{"bufferView":23,"componentType":5123,"count":360,"max":[263],"min":[0],"type":"SCALAR"}],"materials":[{"pbrMetallicRoughness":{"metallicFactor":0,"roughnessFactor":1,"baseColorTexture":{"index":0}},"alphaMode":"MASK","alphaCutoff":0.05,"doubleSided":true}],"textures":[{"sampler":0,"source":0,"name":"texture"}],"samplers":[{"magFilter":9728,"minFilter":9728,"wrapS":33071,"wrapT":33071}],"images":[{"mimeType":"image/png","uri":"data:image/png;base64,"}],"meshes":[{"primitives":[{"mode":4,"attributes":{"POSITION":0,"NORMAL":1,"TEXCOORD_0":2},"indices":3,"material":0}]},{"primitives":[{"mode":4,"attributes":{"POSITION":4,"NORMAL":5,"TEXCOORD_0":6},"indices":7,"material":0}]},{"primitives":[{"mode":4,"attributes":{"POSITION":8,"NORMAL":9,"TEXCOORD_0":10},"indices":11,"material":0}]},{"primitives":[{"mode":4,"attributes":{"POSITION":12,"NORMAL":13,"TEXCOORD_0":14},"indices":15,"material":0}]},{"primitives":[{"mode":4,"attributes":{"POSITION":16,"NORMAL":17,"TEXCOORD_0":18},"indices":19,"material":0}]},{"primitives":[{"mode":4,"attributes":{"POSITION":20,"NORMAL":21,"TEXCOORD_0":22},"indices":23,"material":0}]}]}